<?xml version="1.0" standalone="no"?>
<!DOCTYPE svg PUBLIC "-//W3C//DTD SVG 20010904//EN"
 "http://www.w3.org/TR/2001/REC-SVG-20010904/DTD/svg10.dtd">
<svg version="1.0" xmlns="http://www.w3.org/2000/svg"
 width="512.000000pt" height="512.000000pt" viewBox="0 0 512.000000 512.000000"
 preserveAspectRatio="xMidYMid meet">
<metadata>
Created by potrace 1.14, written by Peter Selinger 2001-2017
</metadata>
<g transform="translate(0.000000,512.000000) scale(0.100000,-0.100000)"
fill="#000000" stroke="none">
<path d="M580 4695 c-206 -144 -385 -270 -397 -279 l-22 -16 55 -58 c64 -66
118 -150 144 -225 26 -75 31 -101 45 -267 14 -167 47 -232 253 -493 l43 -55
-25 -66 c-36 -95 -84 -294 -101 -416 -14 -105 -14 -431 0 -530 91 -638 480
-1194 1050 -1500 200 -107 485 -196 699 -218 138 -14 461 -7 548 12 12 3 37 7
53 10 62 8 240 57 329 91 52 19 97 35 100 35 3 0 66 -60 140 -134 82 -81 152
-142 179 -155 25 -12 81 -26 127 -31 112 -13 156 -37 266 -146 l94 -94 203
142 c111 78 222 156 247 173 55 37 157 109 268 188 l82 59 -51 51 c-83 82
-141 183 -167 288 -11 45 -15 75 -27 209 -9 93 -22 146 -55 215 -27 56 -122
189 -185 260 -59 66 -59 65 -27 157 28 78 65 216 77 283 2 17 7 41 10 55 28
134 26 490 -3 650 -29 156 -27 144 -57 245 -224 738 -834 1271 -1603 1401
-132 22 -446 27 -575 8 -161 -23 -313 -62 -468 -121 l-66 -25 -137 135 c-80
79 -155 144 -180 157 -24 11 -81 25 -126 30 -46 5 -102 19 -127 31 -24 11 -86
63 -139 115 -52 52 -96 94 -97 93 -1 0 -171 -119 -377 -264z m2238 -964 c227
-50 417 -155 588 -325 132 -131 214 -258 278 -429 50 -136 69 -241 70 -397 1
-156 -5 -218 -35 -326 -106 -394 -398 -703 -786 -833 -132 -45 -246 -61 -393
-56 -140 5 -173 9 -278 36 -419 107 -757 445 -861 859 -31 126 -35 162 -35
310 1 308 107 575 319 807 180 197 456 338 727 372 108 13 304 5 406 -18z"/>
<path d="M3120 2720 l0 -480 -80 0 -80 0 0 400 0 400 -80 0 -80 0 0 -400 0
-400 -80 0 -80 0 0 320 0 320 -80 0 -80 0 0 -320 0 -320 -80 0 -80 0 0 240 0
240 -80 0 -80 0 0 -240 0 -240 -80 0 -80 0 0 80 0 80 -80 0 -80 0 0 -80 0 -80
-80 0 -80 0 0 -80 0 -80 880 0 880 0 0 80 0 80 -80 0 -80 0 0 480 0 480 -80 0
-80 0 0 -480z"/>
</g>
</svg>
